<?xml version="1.0" encoding="utf-8"?>
<!-- Generator: Adobe Illustrator 15.0.2, SVG Export Plug-In . SVG Version: 6.00 Build 0)  -->
<!DOCTYPE svg PUBLIC "-//W3C//DTD SVG 1.1//EN" "http://www.w3.org/Graphics/SVG/1.1/DTD/svg11.dtd">
<svg version="1.1" id="Layer_1" xmlns="http://www.w3.org/2000/svg" xmlns:xlink="http://www.w3.org/1999/xlink" x="0px" y="0px"
	 width="67.392px" height="68.116px" viewBox="0 0 67.392 68.116" enable-background="new 0 0 67.392 68.116" xml:space="preserve">
<g>
	<defs>
		<rect id="SVGID_1_" x="5.623" y="6.039" width="57.092" height="57.092"/>
	</defs>
	<clipPath id="SVGID_2_">
		<use xlink:href="#SVGID_1_"  overflow="visible"/>
	</clipPath>
	<circle clip-path="url(#SVGID_2_)" fill="none" stroke="#D7DF23" stroke-width="2.902" cx="34.169" cy="34.584" r="27.095"/>
	<path clip-path="url(#SVGID_2_)" fill="#D7DF23" d="M50.871,44.256v0.645c-0.789,1.486-1.926,2.811-3.197,4.157
		c-1.047,1.106-2.85,2.922-4.307,3.153c-1.73,0.273-3.479-0.616-4.957-1.219c-10.146-4.137-17.578-11.932-20.942-23.147v-1.147
		c0.512-2.823,2.349-5.524,4.11-7.31c0.561-0.569,1.354-1.586,2.153-1.576c0.743,0.008,1.494,1.018,1.957,1.576
		c1.231,1.485,2.087,2.689,3.132,4.157c0.404,0.567,1.368,1.494,1.304,2.364c-0.062,0.858-1.659,1.967-2.087,2.437
		c-0.504,0.553-1.812,1.795-1.827,2.724c-0.009,0.542,0.612,1.44,1.044,2.078c2.578,3.814,5.46,6.854,9.264,9.173
		c0.579,0.354,1.499,1.074,2.088,1.003c0.787-0.094,1.74-1.822,2.087-2.364c0.628-0.978,1.015-2.411,1.958-2.509
		c0.831-0.085,1.523,0.71,2.219,1.219c0.752,0.551,1.348,0.962,2.021,1.434C48.06,41.92,50.035,43.102,50.871,44.256"/>
</g>
</svg>
